<svg width="2816" height="816" viewBox="0 0 2816 816" fill="none" xmlns="http://www.w3.org/2000/svg">
<path d="M644.97 112.082C557.905 61.8729 478.274 157.929 449.342 212.233C447.205 216.131 444.445 221.201 443.333 223.583C448.006 223.583 459.624 227.589 466.033 232.931C478.052 242.946 482.248 256.299 480.722 272.323C479.387 286.344 463.363 308.378 437.324 306.375C417.176 304.825 399.266 290.35 398.599 264.311C398.006 241.196 417.961 227.589 428.644 224.919C397.13 168.3 336.505 160.154 311.133 163.493C290.658 166.386 250.909 186.728 255.717 244.949C260.524 303.17 333.834 356.005 369.889 375.145C338.909 347.37 317.81 310.158 311.133 295.024C308.018 286.567 304.991 268.317 317.81 262.976C333.834 256.299 339.679 264.311 353.864 286.344C368.05 308.378 401.269 352.444 437.324 352.444C472.203 352.444 484.061 335.085 507.429 309.045C526.124 288.214 546.154 289.683 553.499 295.024C561.511 301.033 568.321 319.995 544.819 342.429C521.317 364.863 476.716 390.947 457.354 401.184C513.972 423.618 603.626 369.136 635.622 327.74C675.015 276.774 732.034 162.291 644.97 112.082Z" fill="url(#paint0_linear_36_184)"/>
<path d="M846.985 530.227C820.924 627.294 696.695 615.68 637.838 597.74C633.571 596.494 628.034 594.86 625.563 593.963C628.868 590.658 634.25 579.611 635.005 571.301C636.421 555.722 629.947 543.312 617.537 533.06C606.678 524.09 579.768 519.841 562.771 539.67C549.621 555.012 547.192 577.911 565.132 596.796C581.058 613.56 604.79 609.071 614.232 603.405C631.984 665.725 594.875 714.353 574.574 729.932C558.05 742.365 515.56 756.088 477.791 711.52C440.021 666.952 454.499 577.754 466.46 538.725C464.194 580.272 475.587 621.503 481.567 636.926C485.344 645.109 496.109 660.154 508.95 654.866C525.002 648.256 523.469 638.458 517.92 612.848C512.371 587.237 504.701 532.588 530.195 507.094C554.859 482.43 575.518 486.321 610.455 488.209C638.404 489.72 651.529 474.518 652.945 465.548C654.362 455.633 645.769 437.409 613.288 438.165C580.806 438.92 530.825 452.014 509.894 458.466C534.067 402.567 635.986 377.697 687.882 384.344C751.775 392.527 873.046 433.16 846.985 530.227Z" fill="url(#paint1_linear_36_184)"/>
<path d="M42.2845 500.756C68.3453 597.823 192.575 586.209 251.432 568.269C255.699 567.023 261.236 565.389 263.707 564.492C260.402 561.187 255.02 550.14 254.265 541.831C252.848 526.251 259.323 513.841 271.733 503.589C282.591 494.619 309.502 490.37 326.498 510.199C339.649 525.541 342.078 548.44 324.138 567.325C308.212 584.089 284.48 579.6 275.038 573.934C257.286 636.254 294.394 684.882 314.695 700.461C331.219 712.894 373.71 726.617 411.479 682.049C449.248 637.481 434.77 548.283 422.81 509.255C425.076 550.801 413.682 592.032 407.702 607.455C403.925 615.638 393.161 630.683 380.319 625.395C364.268 618.785 365.8 608.987 371.349 583.377C376.898 557.766 384.568 503.117 359.074 477.623C334.411 452.96 313.751 456.85 278.815 458.738C250.865 460.249 237.74 445.047 236.324 436.077C234.908 426.162 243.5 407.938 275.982 408.694C308.463 409.449 358.445 422.543 379.375 428.995C355.203 373.096 253.283 348.226 201.388 354.873C137.495 363.056 16.2237 403.689 42.2845 500.756Z" fill="url(#paint2_linear_36_184)"/>
<path d="M1365.6 583C1341.6 583 1329.6 567.6 1329.6 536.8V246.4H1325.4L1201.8 560.8C1195.8 575.6 1187.4 583 1176.6 583C1165.4 583 1156.8 575.6 1150.8 560.8L1035.6 246.4H1031.4V549.4C1031.4 562.2 1028.6 571 1023 575.8C1017.8 580.6 1012.4 583 1006.8 583C1001.2 583 996.004 581 991.204 577C986.404 573 984.004 566 984.004 556V189.4C984.004 179 988.004 171.2 996.004 166C1004 160.4 1012.8 157.6 1022.4 157.6C1030 157.6 1038.4 159.8 1047.6 164.2C1056.8 168.2 1063.4 175.6 1067.4 186.4L1182.6 505H1185.6L1311 189.4C1315.4 177.4 1322.2 169.2 1331.4 164.8C1341 160 1350.4 157.6 1359.6 157.6C1380 157.6 1390.2 168.2 1390.2 189.4V553C1390.2 564.2 1388.4 572 1384.8 576.4C1381.2 580.8 1374.8 583 1365.6 583ZM1711.18 507.4C1715.18 503 1720.18 500.8 1726.18 500.8C1729.38 500.8 1732.38 502 1735.18 504.4C1738.38 506.4 1739.98 509.4 1739.98 513.4C1739.98 520.6 1737.38 527.4 1732.18 533.8C1720.98 547.4 1706.58 559 1688.98 568.6C1671.38 578.2 1648.98 583 1621.78 583C1573.78 583 1538.18 570 1514.98 544C1491.78 518 1480.18 483.2 1480.18 439.6C1480.18 388.4 1492.18 349.4 1516.18 322.6C1540.18 295.4 1574.98 281.8 1620.58 281.8C1656.18 281.8 1685.18 292 1707.58 312.4C1729.98 332.4 1741.18 362.4 1741.18 402.4C1741.18 414.8 1737.38 422.8 1729.78 426.4C1722.58 430 1714.98 431.8 1706.98 431.8H1545.58C1545.18 434.2 1544.98 436.6 1544.98 439C1544.98 441 1544.98 443 1544.98 445C1544.98 477.8 1551.38 504.6 1564.18 525.4C1577.38 546.2 1598.78 556.6 1628.38 556.6C1644.78 556.6 1658.18 553.8 1668.58 548.2C1678.98 542.2 1687.38 535.4 1693.78 527.8C1700.58 519.8 1706.38 513 1711.18 507.4ZM1616.98 305.8C1598.58 305.8 1582.98 313.6 1570.18 329.2C1557.78 344.8 1550.18 370.6 1547.38 406.6H1659.58C1666.38 406.6 1671.38 405.4 1674.58 403C1678.18 400.6 1679.98 396 1679.98 389.2C1679.98 370 1676.78 354.2 1670.38 341.8C1664.38 329.4 1656.58 320.4 1646.98 314.8C1637.38 308.8 1627.38 305.8 1616.98 305.8ZM1878.81 542.2C1878.81 560.2 1875.61 571.6 1869.21 576.4C1863.21 580.8 1853.61 583 1840.41 583C1830.81 583 1824.41 580.6 1821.21 575.8C1818.01 570.6 1816.41 563.6 1816.41 554.8V155.2C1816.41 146 1818.01 139 1821.21 134.2C1824.41 129.4 1830.81 127 1840.41 127C1853.61 127 1863.21 130.8 1869.21 138.4C1875.61 145.6 1878.81 158.2 1878.81 176.2V542.2ZM2191.06 507.4C2195.06 503 2200.06 500.8 2206.06 500.8C2209.26 500.8 2212.26 502 2215.06 504.4C2218.26 506.4 2219.86 509.4 2219.86 513.4C2219.86 520.6 2217.26 527.4 2212.06 533.8C2200.86 547.4 2186.46 559 2168.86 568.6C2151.26 578.2 2128.86 583 2101.66 583C2053.66 583 2018.06 570 1994.86 544C1971.66 518 1960.06 483.2 1960.06 439.6C1960.06 388.4 1972.06 349.4 1996.06 322.6C2020.06 295.4 2054.86 281.8 2100.46 281.8C2136.06 281.8 2165.06 292 2187.46 312.4C2209.86 332.4 2221.06 362.4 2221.06 402.4C2221.06 414.8 2217.26 422.8 2209.66 426.4C2202.46 430 2194.86 431.8 2186.86 431.8H2025.46C2025.06 434.2 2024.86 436.6 2024.86 439C2024.86 441 2024.86 443 2024.86 445C2024.86 477.8 2031.26 504.6 2044.06 525.4C2057.26 546.2 2078.66 556.6 2108.26 556.6C2124.66 556.6 2138.06 553.8 2148.46 548.2C2158.86 542.2 2167.26 535.4 2173.66 527.8C2180.46 519.8 2186.26 513 2191.06 507.4ZM2096.86 305.8C2078.46 305.8 2062.86 313.6 2050.06 329.2C2037.66 344.8 2030.06 370.6 2027.26 406.6H2139.46C2146.26 406.6 2151.26 405.4 2154.46 403C2158.06 400.6 2159.86 396 2159.86 389.2C2159.86 370 2156.66 354.2 2150.26 341.8C2144.26 329.4 2136.46 320.4 2126.86 314.8C2117.26 308.8 2107.26 305.8 2096.86 305.8ZM2401.89 583C2377.89 583 2359.29 578.8 2346.09 570.4C2332.89 562 2323.69 550.8 2318.49 536.8C2313.29 522.4 2310.69 506.2 2310.69 488.2V311.2H2274.69C2264.29 311.2 2259.09 306.6 2259.09 297.4C2259.09 292.2 2261.69 288.6 2266.89 286.6C2272.09 284.6 2278.69 281.8 2286.69 278.2C2295.09 274.2 2303.89 267.2 2313.09 257.2C2322.69 247.2 2329.29 238.4 2332.89 230.8C2336.89 223.2 2340.29 217.2 2343.09 212.8C2346.29 208.4 2350.89 206.2 2356.89 206.2C2364.09 206.2 2368.49 208.8 2370.09 214C2372.09 219.2 2373.09 227.6 2373.09 239.2V281.8H2445.69C2450.09 281.8 2453.49 283.4 2455.89 286.6C2458.69 289.4 2460.09 292.8 2460.09 296.8C2460.09 300.4 2458.69 303.8 2455.89 307C2453.49 309.8 2450.09 311.2 2445.69 311.2H2373.09V502C2373.09 522.8 2376.89 537.2 2384.49 545.2C2392.49 552.8 2400.69 556.6 2409.09 556.6C2421.09 556.6 2430.29 553.8 2436.69 548.2C2443.09 542.6 2448.09 536 2451.69 528.4C2455.69 520.8 2459.49 514.2 2463.09 508.6C2467.09 503 2472.49 500.2 2479.29 500.2C2489.69 500.2 2494.89 505 2494.89 514.6C2494.89 517.8 2493.89 521.8 2491.89 526.6C2489.89 531.4 2487.89 535 2485.89 537.4C2475.49 553 2462.89 564.6 2448.09 572.2C2433.29 579.4 2417.89 583 2401.89 583ZM2761.76 507.4C2765.76 503 2770.76 500.8 2776.76 500.8C2779.96 500.8 2782.96 502 2785.76 504.4C2788.96 506.4 2790.56 509.4 2790.56 513.4C2790.56 520.6 2787.96 527.4 2782.76 533.8C2771.56 547.4 2757.16 559 2739.56 568.6C2721.96 578.2 2699.56 583 2672.36 583C2624.36 583 2588.76 570 2565.56 544C2542.36 518 2530.76 483.2 2530.76 439.6C2530.76 388.4 2542.76 349.4 2566.76 322.6C2590.76 295.4 2625.56 281.8 2671.16 281.8C2706.76 281.8 2735.76 292 2758.16 312.4C2780.56 332.4 2791.76 362.4 2791.76 402.4C2791.76 414.8 2787.96 422.8 2780.36 426.4C2773.16 430 2765.56 431.8 2757.56 431.8H2596.16C2595.76 434.2 2595.56 436.6 2595.56 439C2595.56 441 2595.56 443 2595.56 445C2595.56 477.8 2601.96 504.6 2614.76 525.4C2627.96 546.2 2649.36 556.6 2678.96 556.6C2695.36 556.6 2708.76 553.8 2719.16 548.2C2729.56 542.2 2737.96 535.4 2744.36 527.8C2751.16 519.8 2756.96 513 2761.76 507.4ZM2667.56 305.8C2649.16 305.8 2633.56 313.6 2620.76 329.2C2608.36 344.8 2600.76 370.6 2597.96 406.6H2710.16C2716.96 406.6 2721.96 405.4 2725.16 403C2728.76 400.6 2730.56 396 2730.56 389.2C2730.56 370 2727.36 354.2 2720.96 341.8C2714.96 329.4 2707.16 320.4 2697.56 314.8C2687.96 308.8 2677.96 305.8 2667.56 305.8Z" fill="#31A382"/>
<path d="M985.306 616.636H998.687L1016.61 660.376H1017.32L1035.24 616.636H1048.62V677H1038.12V635.529H1037.56L1020.88 676.823H1013.04L996.359 635.441H995.799V677H985.306V616.636ZM1060.52 677V616.636H1099.78V625.803H1071.46V642.191H1097.75V651.357H1071.46V667.833H1100.02V677H1060.52ZM1160.55 616.636V677H1150.82L1122.38 635.883H1121.88V677H1110.94V616.636H1120.73L1149.14 657.783H1149.67V616.636H1160.55ZM1169.81 625.803V616.636H1217.97V625.803H1199.31V677H1188.47V625.803H1169.81ZM1227.71 677H1216.04L1237.29 616.636H1250.79L1272.07 677H1260.4L1244.28 629.016H1243.8L1227.71 677ZM1228.09 653.332H1259.93V662.115H1228.09V653.332ZM1280.02 677V616.636H1290.96V667.833H1317.54V677H1280.02ZM1360.32 677L1343.29 616.636H1355.05L1365.92 660.995H1366.48L1378.1 616.636H1388.8L1400.44 661.025H1400.97L1411.85 616.636H1423.61L1406.57 677H1395.78L1383.7 634.645H1383.23L1371.11 677H1360.32ZM1431.19 677V616.636H1470.45V625.803H1442.12V642.191H1468.41V651.357H1442.12V667.833H1470.68V677H1431.19ZM1481.6 677V616.636H1492.54V667.833H1519.12V677H1481.6ZM1528.62 677V616.636H1539.55V667.833H1566.14V677H1528.62ZM1598.38 642.426V651.21H1571.21V642.426H1598.38ZM1610.08 677V616.636H1633.18C1637.55 616.636 1641.17 617.324 1644.06 618.7C1646.97 620.055 1649.14 621.912 1650.57 624.27C1652.03 626.628 1652.75 629.301 1652.75 632.287C1652.75 634.743 1652.28 636.846 1651.34 638.595C1650.4 640.324 1649.13 641.729 1647.54 642.81C1645.95 643.89 1644.17 644.667 1642.2 645.138V645.728C1644.34 645.846 1646.4 646.504 1648.36 647.702C1650.35 648.881 1651.97 650.552 1653.23 652.713C1654.48 654.875 1655.11 657.488 1655.11 660.553C1655.11 663.678 1654.36 666.487 1652.84 668.983C1651.33 671.459 1649.05 673.414 1646 674.848C1642.96 676.283 1639.13 677 1634.51 677H1610.08ZM1621.01 667.863H1632.77C1636.74 667.863 1639.6 667.106 1641.35 665.593C1643.12 664.061 1644 662.096 1644 659.699C1644 657.91 1643.56 656.299 1642.67 654.865C1641.79 653.411 1640.53 652.271 1638.9 651.446C1637.27 650.601 1635.33 650.178 1633.07 650.178H1621.01V667.863ZM1621.01 642.309H1631.83C1633.71 642.309 1635.41 641.965 1636.93 641.277C1638.44 640.57 1639.63 639.577 1640.49 638.3C1641.38 637.003 1641.82 635.471 1641.82 633.702C1641.82 631.364 1640.99 629.438 1639.34 627.925C1637.71 626.412 1635.29 625.656 1632.06 625.656H1621.01V642.309ZM1664.63 677V616.636H1703.89V625.803H1675.56V642.191H1701.85V651.357H1675.56V667.833H1704.12V677H1664.63ZM1725.98 616.636V677H1715.04V616.636H1725.98ZM1787.42 616.636V677H1777.7L1749.25 635.883H1748.75V677H1737.82V616.636H1747.6L1776.02 657.783H1776.55V616.636H1787.42ZM1839.78 635.913C1839.29 634.321 1838.61 632.896 1837.74 631.639C1836.9 630.362 1835.88 629.271 1834.68 628.367C1833.5 627.463 1832.14 626.785 1830.61 626.333C1829.08 625.862 1827.41 625.626 1825.6 625.626C1822.36 625.626 1819.47 626.442 1816.93 628.072C1814.4 629.703 1812.41 632.101 1810.95 635.264C1809.52 638.408 1808.8 642.24 1808.8 646.759C1808.8 651.318 1809.52 655.179 1810.95 658.343C1812.39 661.506 1814.38 663.913 1816.93 665.564C1819.49 667.195 1822.46 668.01 1825.84 668.01C1828.9 668.01 1831.55 667.421 1833.79 666.242C1836.05 665.063 1837.79 663.393 1839.01 661.231C1840.23 659.05 1840.84 656.496 1840.84 653.568L1843.31 653.951H1826.93V645.403H1851.42V652.654C1851.42 657.822 1850.32 662.292 1848.12 666.065C1845.92 669.838 1842.89 672.746 1839.04 674.789C1835.19 676.813 1830.77 677.825 1825.78 677.825C1820.22 677.825 1815.33 676.578 1811.13 674.082C1806.94 671.567 1803.67 668 1801.31 663.383C1798.97 658.746 1797.81 653.244 1797.81 646.877C1797.81 642.004 1798.49 637.652 1799.87 633.82C1801.26 629.988 1803.21 626.736 1805.7 624.064C1808.2 621.372 1811.13 619.328 1814.49 617.933C1817.85 616.518 1821.5 615.811 1825.45 615.811C1828.79 615.811 1831.91 616.302 1834.8 617.285C1837.68 618.248 1840.25 619.623 1842.49 621.411C1844.75 623.199 1846.61 625.321 1848.06 627.778C1849.51 630.234 1850.47 632.946 1850.92 635.913H1839.78ZM1874.05 668.747L1873.67 671.989C1873.39 674.465 1872.9 676.98 1872.19 679.535C1871.5 682.109 1870.78 684.477 1870.01 686.638C1869.24 688.8 1868.63 690.499 1868.15 691.737H1860.96C1861.24 690.539 1861.61 688.908 1862.08 686.844C1862.57 684.781 1863.04 682.463 1863.5 679.888C1863.95 677.314 1864.25 674.701 1864.41 672.048L1864.62 668.747H1874.05ZM1912.95 677H1901.28L1922.53 616.636H1936.03L1957.31 677H1945.63L1929.51 629.016H1929.04L1912.95 677ZM1913.33 653.332H1945.16V662.115H1913.33V653.332ZM2014.86 616.636V677H2005.14L1976.69 635.883H1976.19V677H1965.26V616.636H1975.04L2003.46 657.783H2003.99V616.636H2014.86ZM2022.65 616.636H2035L2049.77 643.34H2050.36L2065.12 616.636H2077.47L2055.52 654.482V677H2044.61V654.482L2022.65 616.636ZM2086.37 625.803V616.636H2134.54V625.803H2115.88V677H2105.03V625.803H2086.37ZM2154.76 616.636V677H2143.82V616.636H2154.76ZM2166.6 616.636H2179.98L2197.9 660.376H2198.61L2216.53 616.636H2229.91V677H2219.42V635.529H2218.86L2202.17 676.823H2194.33L2177.65 635.441H2177.09V677H2166.6V616.636ZM2241.82 677V616.636H2281.08V625.803H2252.75V642.191H2279.04V651.357H2252.75V667.833H2281.31V677H2241.82ZM2304.29 668.747L2303.9 671.989C2303.63 674.465 2303.14 676.98 2302.43 679.535C2301.74 682.109 2301.02 684.477 2300.25 686.638C2299.48 688.8 2298.86 690.499 2298.39 691.737H2291.2C2291.48 690.539 2291.85 688.908 2292.32 686.844C2292.81 684.781 2293.28 682.463 2293.73 679.888C2294.19 677.314 2294.49 674.701 2294.65 672.048L2294.85 668.747H2304.29ZM2343.19 677H2331.51L2352.76 616.636H2366.26L2387.54 677H2375.87L2359.75 629.016H2359.28L2343.19 677ZM2343.57 653.332H2375.4V662.115H2343.57V653.332ZM2445.1 616.636V677H2435.37L2406.93 635.883H2406.43V677H2395.5V616.636H2405.28L2433.69 657.783H2434.22V616.636H2445.1ZM2452.89 616.636H2465.24L2480.01 643.34H2480.6L2495.36 616.636H2507.71L2485.75 654.482V677H2474.85V654.482L2452.89 616.636ZM2528.16 677L2511.12 616.636H2522.88L2533.76 660.995H2534.32L2545.93 616.636H2556.63L2568.27 661.025H2568.81L2579.68 616.636H2591.44L2574.41 677H2563.62L2551.53 634.645H2551.06L2538.95 677H2528.16ZM2599.02 677V616.636H2609.96V642.191H2637.93V616.636H2648.89V677H2637.93V651.357H2609.96V677H2599.02ZM2660.79 677V616.636H2700.05V625.803H2671.72V642.191H2698.01V651.357H2671.72V667.833H2700.28V677H2660.79ZM2711.2 677V616.636H2733.84C2738.48 616.636 2742.37 617.442 2745.51 619.053C2748.68 620.665 2751.06 622.924 2752.67 625.832C2754.3 628.721 2755.12 632.091 2755.12 635.942C2755.12 639.813 2754.29 643.173 2752.64 646.022C2751.01 648.852 2748.61 651.043 2745.42 652.595C2742.24 654.128 2738.33 654.894 2733.69 654.894H2717.57V645.816H2732.22C2734.93 645.816 2737.15 645.443 2738.88 644.696C2740.61 643.93 2741.89 642.819 2742.71 641.365C2743.56 639.892 2743.98 638.084 2743.98 635.942C2743.98 633.8 2743.56 631.973 2742.71 630.46C2741.87 628.927 2740.58 627.768 2738.85 626.982C2737.12 626.176 2734.89 625.773 2732.16 625.773H2722.14V677H2711.2ZM2742.39 649.648L2757.33 677H2745.13L2730.45 649.648H2742.39ZM2765.19 677V616.636H2804.45V625.803H2776.12V642.191H2802.41V651.357H2776.12V667.833H2804.68V677H2765.19Z" fill="white"/>
<defs>
<linearGradient id="paint0_linear_36_184" x1="300.12" y1="420.627" x2="618.32" y2="162.87" gradientUnits="userSpaceOnUse">
<stop stop-color="#31A382"/>
<stop offset="1" stop-color="#015F4A"/>
</linearGradient>
<linearGradient id="paint1_linear_36_184" x1="384.965" y1="555.899" x2="792.228" y2="513.159" gradientUnits="userSpaceOnUse">
<stop stop-color="#31A382"/>
<stop offset="1" stop-color="#015F4A"/>
</linearGradient>
<linearGradient id="paint2_linear_36_184" x1="504.304" y1="526.428" x2="97.0414" y2="483.688" gradientUnits="userSpaceOnUse">
<stop stop-color="#31A382"/>
<stop offset="1" stop-color="#015F4A"/>
</linearGradient>
</defs>
</svg>
