<svg width="2816" height="816" viewBox="0 0 2816 816" fill="none" xmlns="http://www.w3.org/2000/svg">
<path d="M644.969 112.082C557.905 61.8728 478.274 157.929 449.341 212.233C447.205 216.131 444.445 221.201 443.332 223.583C448.006 223.583 459.623 227.589 466.033 232.931C478.051 242.946 482.248 256.299 480.722 272.323C479.386 286.344 463.362 308.378 437.323 306.375C417.175 304.825 399.266 290.35 398.598 264.311C398.005 241.196 417.961 227.589 428.643 224.919C397.129 168.3 336.504 160.154 311.133 163.493C290.658 166.386 250.909 186.728 255.716 244.949C260.523 303.17 333.834 356.005 369.888 375.145C338.908 347.37 317.81 310.158 311.133 295.024C308.017 286.567 304.99 268.317 317.81 262.976C333.834 256.299 339.678 264.311 353.864 286.344C368.049 308.378 401.269 352.444 437.323 352.444C472.202 352.444 484.06 335.085 507.429 309.045C526.123 288.214 546.154 289.683 553.498 295.024C561.51 301.033 568.32 319.995 544.818 342.429C521.316 364.863 476.716 390.947 457.353 401.184C513.972 423.618 603.626 369.136 635.622 327.74C675.014 276.774 732.034 162.291 644.969 112.082Z" fill="url(#paint0_linear_39_33)"/>
<path d="M846.984 530.227C820.923 627.294 696.694 615.68 637.836 597.74C633.569 596.494 628.032 594.86 625.561 593.963C628.866 590.658 634.248 579.611 635.004 571.301C636.42 555.722 629.945 543.312 617.535 533.06C606.677 524.09 579.766 519.841 562.77 539.67C549.619 555.012 547.19 577.911 565.131 596.796C581.056 613.56 604.788 609.071 614.231 603.405C631.982 665.725 594.874 714.353 574.573 729.932C558.049 742.365 515.558 756.088 477.789 711.52C440.02 666.952 454.498 577.754 466.458 538.725C464.192 580.272 475.586 621.503 481.566 636.926C485.343 645.109 496.107 660.154 508.949 654.866C525.001 648.256 523.468 638.458 517.919 612.848C512.37 587.237 504.7 532.588 530.194 507.094C554.857 482.43 575.517 486.321 610.454 488.209C638.403 489.72 651.528 474.518 652.944 465.548C654.36 455.633 645.768 437.409 613.286 438.165C580.805 438.92 530.823 452.014 509.893 458.466C534.065 402.567 635.985 377.697 687.881 384.344C751.774 392.527 873.045 433.16 846.984 530.227Z" fill="url(#paint1_linear_39_33)"/>
<path d="M42.2857 500.756C68.3466 597.823 192.576 586.209 251.433 568.269C255.7 567.023 261.237 565.389 263.708 564.492C260.403 561.187 255.021 550.14 254.266 541.831C252.849 526.251 259.324 513.841 271.734 503.589C282.593 494.619 309.503 490.37 326.5 510.199C339.65 525.541 342.079 548.44 324.139 567.325C308.213 584.089 284.481 579.6 275.039 573.934C257.287 636.254 294.396 684.882 314.697 700.461C331.221 712.894 373.711 726.617 411.48 682.049C449.25 637.481 434.771 548.283 422.811 509.255C425.077 550.801 413.684 592.032 407.703 607.455C403.927 615.638 393.162 630.683 380.321 625.395C364.269 618.785 365.801 608.987 371.351 583.377C376.9 557.766 384.57 503.117 359.076 477.623C334.412 452.96 313.752 456.85 278.816 458.738C250.867 460.249 237.742 445.047 236.325 436.077C234.909 426.162 243.502 407.938 275.983 408.694C308.465 409.449 358.446 422.543 379.376 428.995C355.204 373.096 253.284 348.226 201.389 354.873C137.496 363.056 16.2249 403.689 42.2857 500.756Z" fill="url(#paint2_linear_39_33)"/>
<path d="M1365.6 583C1341.6 583 1329.6 567.6 1329.6 536.8V246.4H1325.4L1201.8 560.8C1195.8 575.6 1187.4 583 1176.6 583C1165.4 583 1156.8 575.6 1150.8 560.8L1035.6 246.4H1031.4V549.4C1031.4 562.2 1028.6 571 1023 575.8C1017.8 580.6 1012.4 583 1006.8 583C1001.2 583 996.004 581 991.204 577C986.404 573 984.004 566 984.004 556V189.4C984.004 179 988.004 171.2 996.004 166C1004 160.4 1012.8 157.6 1022.4 157.6C1030 157.6 1038.4 159.8 1047.6 164.2C1056.8 168.2 1063.4 175.6 1067.4 186.4L1182.6 505H1185.6L1311 189.4C1315.4 177.4 1322.2 169.2 1331.4 164.8C1341 160 1350.4 157.6 1359.6 157.6C1380 157.6 1390.2 168.2 1390.2 189.4V553C1390.2 564.2 1388.4 572 1384.8 576.4C1381.2 580.8 1374.8 583 1365.6 583ZM1711.18 507.4C1715.18 503 1720.18 500.8 1726.18 500.8C1729.38 500.8 1732.38 502 1735.18 504.4C1738.38 506.4 1739.98 509.4 1739.98 513.4C1739.98 520.6 1737.38 527.4 1732.18 533.8C1720.98 547.4 1706.58 559 1688.98 568.6C1671.38 578.2 1648.98 583 1621.78 583C1573.78 583 1538.18 570 1514.98 544C1491.78 518 1480.18 483.2 1480.18 439.6C1480.18 388.4 1492.18 349.4 1516.18 322.6C1540.18 295.4 1574.98 281.8 1620.58 281.8C1656.18 281.8 1685.18 292 1707.58 312.4C1729.98 332.4 1741.18 362.4 1741.18 402.4C1741.18 414.8 1737.38 422.8 1729.78 426.4C1722.58 430 1714.98 431.8 1706.98 431.8H1545.58C1545.18 434.2 1544.98 436.6 1544.98 439C1544.98 441 1544.98 443 1544.98 445C1544.98 477.8 1551.38 504.6 1564.18 525.4C1577.38 546.2 1598.78 556.6 1628.38 556.6C1644.78 556.6 1658.18 553.8 1668.58 548.2C1678.98 542.2 1687.38 535.4 1693.78 527.8C1700.58 519.8 1706.38 513 1711.18 507.4ZM1616.98 305.8C1598.58 305.8 1582.98 313.6 1570.18 329.2C1557.78 344.8 1550.18 370.6 1547.38 406.6H1659.58C1666.38 406.6 1671.38 405.4 1674.58 403C1678.18 400.6 1679.98 396 1679.98 389.2C1679.98 370 1676.78 354.2 1670.38 341.8C1664.38 329.4 1656.58 320.4 1646.98 314.8C1637.38 308.8 1627.38 305.8 1616.98 305.8ZM1878.81 542.2C1878.81 560.2 1875.61 571.6 1869.21 576.4C1863.21 580.8 1853.61 583 1840.41 583C1830.81 583 1824.41 580.6 1821.21 575.8C1818.01 570.6 1816.41 563.6 1816.41 554.8V155.2C1816.41 146 1818.01 139 1821.21 134.2C1824.41 129.4 1830.81 127 1840.41 127C1853.61 127 1863.21 130.8 1869.21 138.4C1875.61 145.6 1878.81 158.2 1878.81 176.2V542.2ZM2191.06 507.4C2195.06 503 2200.06 500.8 2206.06 500.8C2209.26 500.8 2212.26 502 2215.06 504.4C2218.26 506.4 2219.86 509.4 2219.86 513.4C2219.86 520.6 2217.26 527.4 2212.06 533.8C2200.86 547.4 2186.46 559 2168.86 568.6C2151.26 578.2 2128.86 583 2101.66 583C2053.66 583 2018.06 570 1994.86 544C1971.66 518 1960.06 483.2 1960.06 439.6C1960.06 388.4 1972.06 349.4 1996.06 322.6C2020.06 295.4 2054.86 281.8 2100.46 281.8C2136.06 281.8 2165.06 292 2187.46 312.4C2209.86 332.4 2221.06 362.4 2221.06 402.4C2221.06 414.8 2217.26 422.8 2209.66 426.4C2202.46 430 2194.86 431.8 2186.86 431.8H2025.46C2025.06 434.2 2024.86 436.6 2024.86 439C2024.86 441 2024.86 443 2024.86 445C2024.86 477.8 2031.26 504.6 2044.06 525.4C2057.26 546.2 2078.66 556.6 2108.26 556.6C2124.66 556.6 2138.06 553.8 2148.46 548.2C2158.86 542.2 2167.26 535.4 2173.66 527.8C2180.46 519.8 2186.26 513 2191.06 507.4ZM2096.86 305.8C2078.46 305.8 2062.86 313.6 2050.06 329.2C2037.66 344.8 2030.06 370.6 2027.26 406.6H2139.46C2146.26 406.6 2151.26 405.4 2154.46 403C2158.06 400.6 2159.86 396 2159.86 389.2C2159.86 370 2156.66 354.2 2150.26 341.8C2144.26 329.4 2136.46 320.4 2126.86 314.8C2117.26 308.8 2107.26 305.8 2096.86 305.8ZM2401.89 583C2377.89 583 2359.29 578.8 2346.09 570.4C2332.89 562 2323.69 550.8 2318.49 536.8C2313.29 522.4 2310.69 506.2 2310.69 488.2V311.2H2274.69C2264.29 311.2 2259.09 306.6 2259.09 297.4C2259.09 292.2 2261.69 288.6 2266.89 286.6C2272.09 284.6 2278.69 281.8 2286.69 278.2C2295.09 274.2 2303.89 267.2 2313.09 257.2C2322.69 247.2 2329.29 238.4 2332.89 230.8C2336.89 223.2 2340.29 217.2 2343.09 212.8C2346.29 208.4 2350.89 206.2 2356.89 206.2C2364.09 206.2 2368.49 208.8 2370.09 214C2372.09 219.2 2373.09 227.6 2373.09 239.2V281.8H2445.69C2450.09 281.8 2453.49 283.4 2455.89 286.6C2458.69 289.4 2460.09 292.8 2460.09 296.8C2460.09 300.4 2458.69 303.8 2455.89 307C2453.49 309.8 2450.09 311.2 2445.69 311.2H2373.09V502C2373.09 522.8 2376.89 537.2 2384.49 545.2C2392.49 552.8 2400.69 556.6 2409.09 556.6C2421.09 556.6 2430.29 553.8 2436.69 548.2C2443.09 542.6 2448.09 536 2451.69 528.4C2455.69 520.8 2459.49 514.2 2463.09 508.6C2467.09 503 2472.49 500.2 2479.29 500.2C2489.69 500.2 2494.89 505 2494.89 514.6C2494.89 517.8 2493.89 521.8 2491.89 526.6C2489.89 531.4 2487.89 535 2485.89 537.4C2475.49 553 2462.89 564.6 2448.09 572.2C2433.29 579.4 2417.89 583 2401.89 583ZM2761.76 507.4C2765.76 503 2770.76 500.8 2776.76 500.8C2779.96 500.8 2782.96 502 2785.76 504.4C2788.96 506.4 2790.56 509.4 2790.56 513.4C2790.56 520.6 2787.96 527.4 2782.76 533.8C2771.56 547.4 2757.16 559 2739.56 568.6C2721.96 578.2 2699.56 583 2672.36 583C2624.36 583 2588.76 570 2565.56 544C2542.36 518 2530.76 483.2 2530.76 439.6C2530.76 388.4 2542.76 349.4 2566.76 322.6C2590.76 295.4 2625.56 281.8 2671.16 281.8C2706.76 281.8 2735.76 292 2758.16 312.4C2780.56 332.4 2791.76 362.4 2791.76 402.4C2791.76 414.8 2787.96 422.8 2780.36 426.4C2773.16 430 2765.56 431.8 2757.56 431.8H2596.16C2595.76 434.2 2595.56 436.6 2595.56 439C2595.56 441 2595.56 443 2595.56 445C2595.56 477.8 2601.96 504.6 2614.76 525.4C2627.96 546.2 2649.36 556.6 2678.96 556.6C2695.36 556.6 2708.76 553.8 2719.16 548.2C2729.56 542.2 2737.96 535.4 2744.36 527.8C2751.16 519.8 2756.96 513 2761.76 507.4ZM2667.56 305.8C2649.16 305.8 2633.56 313.6 2620.76 329.2C2608.36 344.8 2600.76 370.6 2597.96 406.6H2710.16C2716.96 406.6 2721.96 405.4 2725.16 403C2728.76 400.6 2730.56 396 2730.56 389.2C2730.56 370 2727.36 354.2 2720.96 341.8C2714.96 329.4 2707.16 320.4 2697.56 314.8C2687.96 308.8 2677.96 305.8 2667.56 305.8Z" fill="#31A382"/>
<defs>
<linearGradient id="paint0_linear_39_33" x1="300.12" y1="420.627" x2="618.319" y2="162.87" gradientUnits="userSpaceOnUse">
<stop stop-color="#31A382"/>
<stop offset="1" stop-color="#015F4A"/>
</linearGradient>
<linearGradient id="paint1_linear_39_33" x1="384.964" y1="555.899" x2="792.227" y2="513.159" gradientUnits="userSpaceOnUse">
<stop stop-color="#31A382"/>
<stop offset="1" stop-color="#015F4A"/>
</linearGradient>
<linearGradient id="paint2_linear_39_33" x1="504.305" y1="526.428" x2="97.0426" y2="483.688" gradientUnits="userSpaceOnUse">
<stop stop-color="#31A382"/>
<stop offset="1" stop-color="#015F4A"/>
</linearGradient>
</defs>
</svg>
